<?xml version="1.0" encoding="iso-8859-1"?>
<!-- Generator: Adobe Illustrator 19.1.0, SVG Export Plug-In . SVG Version: 6.00 Build 0)  -->
<svg version="1.1" id="Capa_1" xmlns="http://www.w3.org/2000/svg" xmlns:xlink="http://www.w3.org/1999/xlink" x="0px" y="0px"
	 viewBox="0 0 63.215 63.215" style="enable-background:new 0 0 63.215 63.215;" xml:space="preserve">
<g>
	<g>
		<path d="M59.807,15.717L31.491,43.791L3.419,15.475c-0.777-0.785-2.044-0.789-2.828-0.012c-0.784,0.777-0.789,2.044-0.012,2.827
			l29.194,29.448c0.365,0.368,0.835,0.563,1.312,0.589c0.139,0.008,0.278-0.001,0.415-0.021c0.054,0.008,0.106,0.021,0.16,0.022
			c0.544,0.029,1.099-0.162,1.515-0.576l29.447-29.196c0.785-0.777,0.79-2.043,0.012-2.828
			C61.856,14.943,60.59,14.939,59.807,15.717z" fill="#FFF"/>
	</g>
</g>
<g>
</g>
<g>
</g>
<g>
</g>
<g>
</g>
<g>
</g>
<g>
</g>
<g>
</g>
<g>
</g>
<g>
</g>
<g>
</g>
<g>
</g>
<g>
</g>
<g>
</g>
<g>
</g>
<g>
</g>
</svg>
