<?xml version="1.0" encoding="utf-8"?>
<!-- Generator: Adobe Illustrator 16.0.0, SVG Export Plug-In . SVG Version: 6.00 Build 0)  -->
<!DOCTYPE svg PUBLIC "-//W3C//DTD SVG 1.1//EN" "http://www.w3.org/Graphics/SVG/1.1/DTD/svg11.dtd">
<svg version="1.1" id="Layer_1" xmlns="http://www.w3.org/2000/svg" xmlns:xlink="http://www.w3.org/1999/xlink" x="0px" y="0px"
	 width="326.464px" height="292.004px" viewBox="0 0 326.464 292.004" enable-background="new 0 0 326.464 292.004"
	 xml:space="preserve">
<g>
	<path fill="#FFEDC0" d="M299.821,158.541c0,0-3.057-4.647,1.857-13.678s22.311-32.669,0-46.481c0,0-2.258,1.063-3.584,0.664
		c-1.33-0.398-3.057,0-3.455,0.664c-0.398,0.665-1.061,3.453-1.061,3.453l-1.727,1.461l3.453,3.054c0,0,5.709,2.523,4.115,11.819
		c-1.592,9.296-12.35,12.732-15.205,29.56l16.135,9.483"/>
	<path fill="#C9C9C9" d="M263.565,157.744l3.055-9.429c0,0,22.975-6.242,38.246,13.811l-7.172,10.891L263.565,157.744z"/>
	<path fill="#F9C035" d="M93.954,141.319c0,0-5.083,24.273-17.412,31.137c0,0-5.083,4.703-12.073,2.67c0,0-7.245,9.404-17.03,2.668
		c-9.786-6.735,0.126-22.113,9.277-28.723c9.15-6.608,14.488,3.178,14.488,3.178s3.688-4.83,4.958-13.473
		C77.432,130.134,93.954,141.319,93.954,141.319z"/>
	<path fill="#DD9300" d="M64.469,175.125c0,0-9.136-3.105-4.554-14.527c0,0-7.595,12.527,3.406,15.76
		C63.321,176.358,64.109,175.64,64.469,175.125z"/>
	<path fill="#F9C035" d="M70.007,19.099c0,0-10.956-14.84-26.992-15.936c0,0-5.976,3.785-5.976,10.358l5.279,3.287l2.291-0.399
		c0,0,0.1,0.997,1.495,1.195c1.394,0.199,3.884-1.395,3.884-1.395s4.977,1.985,5.776,8.96c0.798,6.976,4.981,4.188,5.28,3.889
		C61.342,28.76,70.007,19.099,70.007,19.099z"/>
	<circle fill="#FFD34D" cx="93.01" cy="78.86" r="65.338"/>
	<path fill="#EF4A6B" d="M118.414,36.762c0,0-2.125-3.055,2.657-6.507c4.78-3.453,8.559-20.186-1.564-24.967
		c-10.123-4.781-15.833,0-15.833,0s10.819-1.323,11.686,5.578c0.868,6.901-0.531,7.702-2.922,11.819
		c-2.39,4.118-0.796,9.297,1.462,11.687C113.899,34.372,118.861,38.915,118.414,36.762z"/>
	<path fill="#660000" d="M126.902,73.416c0.343,5.159-1.603,9.49-4.348,9.673c-2.744,0.183-5.248-3.852-5.59-9.011
		c-0.221-3.316,0.504-6.291,1.779-8.04c0.35-0.48,0.741-0.868,1.164-1.146c0.082-0.053,0.157-0.122,0.25-0.147
		c0.185-0.051,4.327,1.671,4.688,1.911c0.167,0.111,0.22,0.342,0.325,0.524C126.095,68.79,126.74,70.977,126.902,73.416z"/>
	
		<ellipse transform="matrix(0.9978 -0.0664 0.0664 0.9978 -4.3896 8.0709)" fill="#FFFFFF" cx="119.153" cy="70.034" rx="1.382" ry="2.599"/>
	
		<ellipse transform="matrix(0.9978 -0.0664 0.0664 0.9978 -3.8224 9.6139)" fill="#660000" cx="142.607" cy="62.266" rx="2.576" ry="6.949"/>
	
		<ellipse transform="matrix(0.9977 -0.0672 0.0672 0.9977 -3.6987 9.6278)" fill="#FFFFFF" cx="141.249" cy="59.787" rx="0.661" ry="1.785"/>
	<polygon fill="#DB9C00" points="126.942,67.439 101.548,59.205 100.751,56.549 	"/>
	<path fill="#DB9C00" d="M129.502,61.596c0,0,3.851,2.19,0.93,7.237l1.992,0.399C132.424,69.232,134.815,63.521,129.502,61.596z"/>
	<polygon fill="#DB9C00" points="139.064,59.537 144.044,43.07 142.581,41.343 	"/>
	<path fill="#960000" d="M144.044,95.394c0,0,2.855,1.395,4.548-2.49c1.693-3.884,3.486-15.936,1.395-17.629
		c-2.092-1.693-6.691,9.562-7.38,13.745C141.919,93.203,142.157,95.234,144.044,95.394z"/>
	<path fill="#DB9C00" d="M148.427,97.187c0,0-1.926,6.64-5.378,6.242c-3.453-0.398-5.441-3.777-5.378-3.52
		c0.166,0.689,1.992,5.179,5.378,5.378C146.435,105.486,148.427,97.187,148.427,97.187z"/>
	<path fill="#DD9300" d="M71.204,152.249c0,0-2.79,5.828-4.649,8.949c0,0,3.934-7.391,2.962-11.199
		C69.517,149.999,71.006,151.268,71.204,152.249z"/>
	<path fill="#FFD34D" d="M130.365,130.254c0,0,20.85-6.109,38.115,9.163c0,0-0.399,8.101,3.054,9.562s7.569,0.531,7.569,0.531
		s21.115-11.687,28.154-28.553c7.039-16.866-1.061-20.713-9.428-19.719c-8.368,0.994-18.991,11.22-23.108,21.711
		c0,0-11.713-10.492-34.144-3.32L130.365,130.254z"/>
	<path fill="#F9C035" d="M205.993,123.653c0,0,5.148-10.829-1.027-14.017c-6.174-3.187-18.724,5.378-23.604,17.63
		c-4.881,12.25-5.4,18.865-4.184,20.617c1.216,1.751,2.535,1.365,4.615,0C183.874,146.517,197.759,138.466,205.993,123.653z"/>
	<path opacity="0.7" fill="#CAF8FF" d="M112.51,127.066c0,0-34.714,27.091-70.452,25.498c-35.737-1.593-13.825-51.325-13.825-51.325
		s-39.84,38.119-20.318,78.985c19.521,40.865,142.273,42.441,191.057-93.804h-17.344l-26.94,18.871l-34.09,12.612
		C120.597,117.903,121.1,121.179,112.51,127.066z"/>
	<circle fill="#7E8AA2" cx="257.312" cy="222.22" r="66.622"/>
	<path fill="#FFD34D" d="M309.913,108.076c0,0-2.125-9.447,1.594-21.656c0,0-3.188,11.165-7.438,4.259c0,0-2.789,5.313-11.154-7.304
		c0,0-2.656,5.976-11.023-0.531c0,0,9.695,7.703,5.047,11.421c-4.648,3.718-12.617,1.195-12.617,1.195s8.766,4.495-5.578,5.634
		c0,0,15.938-1.517,13.148,8.576c0,0,13.68-1.196,6.641,2.656c0,0,7.965-2.766,10.953,1.605c0,0,0.732-7.66,3.92-4.965
		c3.188,2.696,3.055,8.671,3.055,8.671S306.858,113.123,309.913,108.076z"/>
	
		<ellipse transform="matrix(0.8079 0.5893 -0.5893 0.8079 181.3086 -128.051)" fill="#FFFFFF" cx="287.071" cy="214.083" rx="15.404" ry="17.529"/>
	
		<ellipse transform="matrix(0.8078 0.5894 -0.5894 0.8078 168.5142 -112.8406)" fill="#FFFFFF" cx="257.313" cy="202.018" rx="7.037" ry="8.007"/>
	<path fill="#FFFFFF" d="M282.688,241.011c0,0-11.045,1.838-25.377-10.104c-14.33-11.941-16.854-21.205-16.854-21.205
		s-2.258-2.424-4.383-1.229s-17.662,8.631-19.787,14.475s-2.125,7.174,7.703,10.891c9.826,3.717,30.811,13.547,35.725,20.719
		c4.912,7.17,9.428,11.949,19.123,5.311C278.839,259.868,277.245,247.784,282.688,241.011z"/>
	<path fill="#FFD34D" d="M123.194,105.291c0,0,23.905,14.804,44.422-18.264c0,0-2.39-12.749-5.678-15.737
		c0,0,1.296-3.685,4.582-2.789c3.287,0.896,3.387,3.121,4.582,5.246s4.383,1.713,5.678-1.119c1.295-2.833,1.992-14.621,1.992-14.621
		s0.996-3,2.988-2.678c1.991,0.323,2.789,1.219,2.888,4.208c0.1,2.988-1.692,11.753-1.692,11.753l1.696,0.398l5.573-10.956
		c0,0,1.195-2.889,4.582-1.195c3.388,1.693,0,5.877,0,5.877l-6.672,9.688l0.995,0.669l8.766-4.781c0,0,1.893-0.71,2.689,1.637
		c0.797,2.347-1.693,3.742-1.693,3.742l-7.77,3.984l0.598,1.596h8.168c0,0,1.594-0.003,1.594,2.487s-2.789,2.291-2.789,2.291
		s-7.272,0.099-12.152,2.888c-4.881,2.789-10.159,12.052-19.821,19.422c-9.66,7.37-26.383,15.438-49.795,11.752L123.194,105.291z"/>
	<path opacity="0.5" fill="#660000" d="M100.75,130.227c-33.213,0-60.137-26.924-60.137-60.137c0-9.426,2.174-18.343,6.038-26.284
		c-8.183,10.102-13.093,22.965-13.093,36.979c0,32.475,26.326,58.802,58.802,58.802c19.119,0,36.099-9.131,46.839-23.264
		C128.775,125.002,115.374,130.227,100.75,130.227z"/>
	<path opacity="0.5" d="M264.296,274.118c-33.215,0-60.137-26.922-60.137-60.137c0-9.426,2.172-18.342,6.037-26.284
		c-8.184,10.104-13.094,22.965-13.094,36.979c0,32.477,26.326,58.803,58.803,58.803c19.119,0,36.1-9.131,46.84-23.264
		C292.319,268.896,278.919,274.118,264.296,274.118z"/>
	
		<ellipse transform="matrix(0.9793 -0.2025 0.2025 0.9793 -3.7597 18.7161)" opacity="0.7" fill="#FFFFFF" cx="89.595" cy="27.733" rx="11.155" ry="7.481"/>
	
		<ellipse transform="matrix(0.9793 -0.2024 0.2024 0.9793 -28.8097 54.0687)" opacity="0.7" fill="#FFFFFF" cx="249.924" cy="167.878" rx="11.156" ry="7.483"/>
	
		<ellipse transform="matrix(0.8971 -0.4418 0.4418 0.8971 -29.7678 58.2519)" fill="#EF4A6B" cx="110.19" cy="93.041" rx="6.592" ry="4.42"/>
	
		<ellipse transform="matrix(0.8971 -0.4418 0.4418 0.8971 -13.0472 73.4667)" fill="#EF4A6B" cx="151.199" cy="64.744" rx="2.998" ry="2.011"/>
	<path opacity="0.5" fill="#660000" d="M130.365,62.322c0,0,0.2,3.191-1.295,3.888l-28.319-9.662l29.682,12.284
		C130.433,68.833,132.96,64.976,130.365,62.322z"/>
	<polygon opacity="0.5" fill="#660000" points="142.581,41.343 141.249,40.713 137.67,58.74 135.146,58.007 138.864,61.568 	"/>
	<path opacity="0.5" fill="#660000" d="M137.321,98.68c0,0,2.623,4.283,6.374,3.686c3.752-0.598,4.383-6.275,4.383-6.275
		s-1.61,3.801-4.25,4.067C141.023,100.44,137.321,98.68,137.321,98.68z"/>
	<path opacity="0.5" fill="#660000" d="M151.17,75.855c0,0-0.181-1.657-2.058-1.527c-2.049,0.143-6.175,7.437-6.175,7.437
		s2.667-8.832,6.303-9.105C151.591,72.482,151.17,75.855,151.17,75.855z"/>
	<path opacity="0.7" fill="#FFFFFF" d="M147.069,95.637c0,0-2.387,2.396-4.814-0.194c0,0,0.11,2.985,2.055,3.188
		C146.255,98.833,146.939,97.026,147.069,95.637z"/>
	<path opacity="0.5" fill="#660000" d="M179.768,93.041c0,0-20.227,32.631-62.005,26.854c0,0-3.124-4.581-0.839-6.972
		C116.924,112.923,150.883,124.552,179.768,93.041z"/>
	<path opacity="0.3" fill="#660000" d="M66.949,17.917c0,0-7.462,2.403-10.416,5.408c0,0-2.002-7.46-5.808-8.262
		c0,0-3.755,2.103-4.807,1.151c0,0,2.904-0.931,3.955-2.693l3.255-2.213c0,0,7.811,0.701,13.82,6.459"/>
	<path opacity="0.5" fill="#660000" d="M60.914,161.198c0,0-3.058,9.826,4.379,12.748c7.437,2.922,14.741-5.445,16.201-7.039
		c0,0-8.737,6.342-14.94,3.188c-6.202-3.154-4.05-8.896-4.05-8.896H60.914z"/>
	<path opacity="0.5" fill="#660000" d="M91.521,145.454c0,0-9.86,0.039-15.239-2.152c0,0-1.295,4.781-2.888,7.47
		c0,0,13.446-0.797,16.732,0L91.521,145.454z"/>
	<path fill="#F9C035" d="M137.321,126.875c0,0,22.688-2.16,31.025,8.625c0,0,0.69-4.941,1.807-6.488
		C170.153,129.011,153.707,120.309,137.321,126.875z"/>
	<path fill="#F9C035" d="M170.153,137.425c0,0-1.441,5.678,0.75,9.363c0,0,0.996,1.893,4.881,1.395c0,0-1.473-6.092,0.838-10.16
		C176.622,138.022,170.897,144.2,170.153,137.425z"/>
	<path opacity="0.7" fill="#FFFFFF" d="M103.673,139.587c0,0-31.673,5.53-51.765-16.127c-20.091-21.657-18.414-44.066-18.241-46.251
		c0.001,0-5.314,26.542,17.805,48.242C64.469,137.65,78.053,142.229,103.673,139.587z"/>
	<path opacity="0.7" fill="#FFFFFF" d="M128.174,59.788c0,0,0.996,2.24,0,3.733l-25.299-9.063L128.174,59.788z"/>
	<polygon opacity="0.7" fill="#FFFFFF" points="134.508,55.306 136.266,56.549 138.025,40.713 	"/>
	<path fill="#F9C035" d="M188.975,84.752c0,0-3.098-9.724-7.949-10.833l-8.828,11.45l9.43,4.646L188.975,84.752z"/>
	<path fill="#FFFFFF" d="M118.546,77.599c0,0,1.613,4.944,4.25,4.167c2.636-0.778,2.921-6.663,2.921-6.663s-0.93,4.555-3.054,4.687
		C120.538,79.922,118.546,77.599,118.546,77.599z"/>
	<path fill="#FFFFFF" d="M140.973,65.712c0,0,0.859,3.32,2.303,2.922s1.183-5.113,1.183-5.113s-0.448,3.702-1.295,3.918
		C143.164,67.439,141.739,67.433,140.973,65.712z"/>
	<path fill="#660000" d="M149.738,84.786c0,0,1.245-5.892,0.349-7.577c-0.896-1.686-3.877,1.8-5.425,7.577
		C144.661,84.786,149.339,76.768,149.738,84.786z"/>
	<path opacity="0.5" fill="#660000" d="M182.956,127.863c0,0,8.632-19.124,19.788-16.999c0,0,9.561,1.461-0.531,16.999
		C202.212,127.863,197.429,116.31,182.956,127.863z"/>
	<path fill="#FFFFFF" d="M208.851,110.134c0,0,0.059-5.031-3.285-6.972c-3.346-1.941-10.36-0.597-12.253,1.395
		C193.313,104.557,204.069,101.07,208.851,110.134z"/>
	<path opacity="0.7" fill="#FFFFFF" d="M124.522,108.76c0,0,11.896,5.3,28.258-3.469c0,0-8.072,9.36-30.847,5.409
		C121.933,110.7,118.097,107.316,124.522,108.76z"/>
	<path d="M116.994,35.402c0,0-5.042-2.062-4.858-8.58c0,0-0.127-2.891,2.427-6.088c0,0-0.09,4.612,4.953,3.136
		c5.042-1.476,5.964-5.596,5.964-5.596s-0.799,6.374-3.321,9.459C119.638,30.819,116.256,31.622,116.994,35.402z"/>
	<path fill="#FFFFFF" d="M106.461,4.292c0,0,5.313-1.727,10.359,0.399c5.046,2.125,6.506,4.05,7.104,6.507
		c0,0-2.523,5.644-7.371,2.324C116.553,13.521,117.55,3.496,106.461,4.292z"/>
	<path opacity="0.5" d="M298.497,167.877l4.248-5.827c0,0-5.037-5.555-7.994-7.095c-2.959-1.541-0.5,0-0.5,0l-3.641,8.278
		L298.497,167.877z"/>
	<polygon opacity="0.5" points="289.196,162.458 292.517,153.229 290.192,152.432 287.138,161.074 	"/>
	<polygon opacity="0.7" fill="#FFFFFF" points="273.79,156.748 275.384,148.083 271.501,148.083 270.007,156.15 	"/>
	<path opacity="0.7" fill="#FFFFFF" d="M265.196,155.598l2.143-6.885c0,0,0.781,0.075,0.857,0c0.076-0.076-1.967,7.031-1.967,7.031
		L265.196,155.598z"/>
	<path d="M297.562,152.432c0,0-0.609-5.973,4.117-10.89c4.729-4.917,10.637-20.788,9.828-27.357l-0.797-2.656
		c0,0,1.328,9.429-4.648,18.327s-12.859,14.61-13.545,19.946L297.562,152.432z"/>
	<path opacity="0.7" fill="#CAF8FF" d="M186.425,246.685c0,0-6.597-20.918-2.369-33.566l-30.175-31.638L186.425,246.685z"/>
	<path fill="#CAF8FF" d="M202.04,170.978c0,0-8.728,9.246-12.109,21.318l-16.776-21.318c0,0,9.959,8.135,10.757,1.544
		s-2.368-12.102-2.368-12.102L202.04,170.978z"/>
	<path fill="#CAF8FF" d="M253.87,152.229l-54.898-8.031l33.783,12.549c0,0,6.906-4.519,22.709-4.519"/>
</g>
</svg>
