<?xml version="1.0" encoding="utf-8"?>
<!-- Generator: Adobe Illustrator 16.0.0, SVG Export Plug-In . SVG Version: 6.00 Build 0)  -->
<!DOCTYPE svg PUBLIC "-//W3C//DTD SVG 1.1//EN" "http://www.w3.org/Graphics/SVG/1.1/DTD/svg11.dtd">
<svg version="1.1" id="Layer_1" xmlns="http://www.w3.org/2000/svg" xmlns:xlink="http://www.w3.org/1999/xlink" x="0px" y="0px"
	 width="40px" height="40px" viewBox="0 0 40 40" enable-background="new 0 0 40 40" xml:space="preserve">
<g>
	<g>
		<path fill="#FFFFFF" d="M1.539,11.438h36.922c0.924,0,1.539-1.364,1.539-3.411s-0.615-3.411-1.539-3.411H1.539
			C0.615,4.615,0,5.98,0,8.026S0.615,11.438,1.539,11.438z"/>
		<path fill="#FFFFFF" d="M38.461,17.589H1.539C0.616,17.589,0,18.953,0,21c0,2.048,0.615,3.411,1.539,3.411h36.922
			C39.385,24.411,40,23.048,40,21C40,18.953,39.385,17.589,38.461,17.589z"/>
		<path fill="#FFFFFF" d="M38.461,30.436H1.539C0.616,30.436,0,31.799,0,33.845c0,2.049,0.615,3.412,1.539,3.412h36.922
			c0.924,0,1.539-1.363,1.539-3.412C40,31.799,39.385,30.436,38.461,30.436z"/>
	</g>
</g>
</svg>
