<?xml version="1.0" encoding="utf-8"?>
<!-- Generator: Adobe Illustrator 16.0.0, SVG Export Plug-In . SVG Version: 6.00 Build 0)  -->
<!DOCTYPE svg PUBLIC "-//W3C//DTD SVG 1.1//EN" "http://www.w3.org/Graphics/SVG/1.1/DTD/svg11.dtd">
<svg version="1.1" id="Layer_1" xmlns="http://www.w3.org/2000/svg" xmlns:xlink="http://www.w3.org/1999/xlink" x="0px" y="0px"
	 width="400px" height="400px" viewBox="0 0 400 400" enable-background="new 0 0 400 400" xml:space="preserve">
<g>
	<rect x="159.846" y="92.921" fill="#A8A8A8" width="53.539" height="80.31"/>
	<rect x="186.615" y="39.381" fill="#8E8E8E" width="26.77" height="107.08"/>
	<rect x="186.615" y="39.381" fill="#8E8E8E" width="26.77" height="26.77"/>
	<rect x="186.615" y="12.611" fill="#515151" width="26.77" height="26.77"/>
	<rect x="186.615" y="119.69" fill="#8E8E8E" width="26.77" height="26.771"/>
	<rect x="133.076" y="173.23" fill="#A8A8A8" width="26.77" height="107.079"/>
	<rect x="106.306" y="253.54" fill="#A8A8A8" width="26.77" height="53.539"/>
	<rect x="79.536" y="173.23" fill="#A8A8A8" width="26.77" height="160.619"/>
	<rect x="79.536" y="200" fill="#D8D8D8" width="26.77" height="107.079"/>
	<rect x="79.536" y="173.23" fill="#00A2CE" width="26.77" height="26.77"/>
	<polygon fill="#8E8E8E" points="213.385,200 213.385,119.69 186.615,119.69 186.615,200 159.846,200 159.846,253.54 
		240.154,253.54 240.154,200 	"/>
	<rect x="186.615" y="226.77" fill="#515151" width="26.77" height="26.771"/>
	<rect x="186.615" y="253.54" fill="#FF4545" width="26.77" height="26.77"/>
	<rect x="186.615" y="307.079" fill="#FF4545" width="26.77" height="26.771"/>
	<rect x="186.615" y="333.85" fill="#F4DD38" width="26.77" height="26.771"/>
	<rect x="186.615" y="360.62" fill="#F4DD38" width="26.77" height="26.769"/>
	<rect x="213.385" y="226.77" fill="#777777" width="26.77" height="26.771"/>
	<rect x="186.615" y="200" fill="#8E8E8E" width="26.77" height="26.77"/>
	<rect x="159.846" y="226.77" fill="#777777" width="26.769" height="26.771"/>
	<rect x="133.076" y="253.54" fill="#777777" width="26.77" height="26.77"/>
	<rect x="106.306" y="253.54" fill="#515151" width="26.77" height="53.539"/>
	<rect x="186.615" y="92.921" fill="#E8E8E8" width="26.77" height="26.77"/>
	<rect x="186.615" y="119.69" fill="#D8D8D8" width="26.77" height="26.771"/>
	<rect x="186.615" y="146.461" fill="#C4C4C4" width="26.77" height="26.77"/>
	<rect x="240.154" y="173.23" fill="#A8A8A8" width="26.77" height="107.079"/>
	<rect x="266.924" y="253.54" fill="#A8A8A8" width="26.771" height="53.539"/>
	<rect x="293.695" y="173.23" fill="#A8A8A8" width="26.77" height="160.619"/>
	<rect x="293.695" y="200" fill="#D8D8D8" width="26.77" height="107.079"/>
	<rect x="293.695" y="173.23" fill="#00A2CE" width="26.77" height="26.77"/>
	<rect x="240.154" y="253.54" fill="#777777" width="26.77" height="26.77"/>
	<rect x="266.924" y="253.54" fill="#515151" width="26.771" height="53.539"/>
	<rect x="106.306" y="226.77" fill="#777777" width="26.77" height="26.771"/>
	<rect x="266.924" y="226.77" fill="#777777" width="26.771" height="26.771"/>
	<rect x="213.385" y="66.151" fill="#A8A8A8" width="26.77" height="107.08"/>
	<rect x="159.846" y="66.151" fill="#A8A8A8" width="26.769" height="107.08"/>
	<rect x="159.846" y="146.461" fill="#8E8E8E" width="26.769" height="26.77"/>
	<rect x="213.385" y="146.461" fill="#8E8E8E" width="26.77" height="26.77"/>
</g>
</svg>
